<?xml version="1.0" encoding="utf-8"?>
<!-- Generator: Adobe Illustrator 24.0.0, SVG Export Plug-In . SVG Version: 6.00 Build 0)  -->
<svg version="1.1" id="Layer_1" xmlns="http://www.w3.org/2000/svg" xmlns:xlink="http://www.w3.org/1999/xlink" x="0px" y="0px"
	 viewBox="0 0 413.58 111.12" style="enable-background:new 0 0 413.58 111.12;" xml:space="preserve">
<style type="text/css">
	.st0{fill:#E6320F;}
</style>
<g>
	<path d="M388,84.2h2.38v6.84c0,1.8,0.98,3.24,3.12,3.24c1.1,0,2.16-0.65,2.16-0.65l-0.48-1.08c0,0-0.77,0.5-1.63,0.5
		c-1.49,0-1.92-1.03-1.92-2.26v-6.6h3.72v-1.15h-3.72v-3.53h-1.25v3.53H388V84.2z M384.04,82.76c-2.26,0-3.19,2.06-3.19,2.06v-1.78
		h-1.13v10.94h1.25v-7.9c0,0,0.89-2.11,2.78-2.11c1.01,0,1.46,0.26,1.46,0.26l0.53-1.2C385.74,83.05,385.07,82.76,384.04,82.76
		 M370.17,93.05c-2.74,0-4.27-2.06-4.27-4.54s1.54-4.54,4.27-4.54s4.27,2.06,4.27,4.54S372.9,93.05,370.17,93.05 M370.17,82.76
		c-3.26,0-5.57,2.59-5.57,5.76s2.3,5.76,5.57,5.76s5.57-2.59,5.57-5.76S373.43,82.76,370.17,82.76 M352.17,86.53
		c0,0,1.18-2.54,3.94-2.54c2.45,0,4.15,1.99,4.15,4.54s-1.7,4.54-4.15,4.54c-2.76,0-3.94-2.54-3.94-2.54V86.53z M350.92,83.05v16.46
		h1.25v-7.34c0.31,0.43,1.54,2.11,3.96,2.11c3.05,0,5.42-2.35,5.42-5.76c0-3.41-2.38-5.76-5.42-5.76c-2.83,0-4.08,2.3-4.08,2.3
		v-2.02H350.92z M345.14,89.79c0,2.02-1.68,3.26-3.77,3.26c-2.98,0-4.08-2.88-4.08-2.88l-1.13,0.67c0,0,1.51,3.43,5.21,3.43
		c2.81,0,5.02-1.78,5.02-4.49c0-2.26-1.44-3.55-4.01-4.68c-2.4-1.06-4.3-1.97-4.3-4.03c0-1.68,1.34-2.95,3.46-2.95
		c2.38,0,3.58,1.94,3.58,1.94l0.96-0.74c0,0-1.56-2.42-4.56-2.42c-3.14,0-4.68,2.28-4.68,4.18c0,2.54,2.04,3.84,4.51,4.92
		C343.31,86.86,345.14,87.7,345.14,89.79 M322.19,90.51c0,0-1.2,2.54-3.94,2.54c-2.45,0-4.15-1.99-4.15-4.54s1.7-4.54,4.15-4.54
		c2.76,0,3.94,2.54,3.94,2.54V90.51z M323.44,93.99V75.85h-1.22v9.05c-0.29-0.43-1.56-2.14-3.96-2.14c-3.05,0-5.45,2.35-5.45,5.76
		c0,3.41,2.4,5.76,5.45,5.76c2.78,0,4.06-2.3,4.06-2.3v2.02H323.44z M304.72,82.76c-2.69,0-3.74,2.28-3.74,2.28v-1.99h-1.13v10.94
		h1.25v-7.56c0,0,0.96-2.45,3.38-2.45c1.78,0,3.1,0.96,3.1,3.22v6.79h1.25v-6.98C308.83,84.03,306.76,82.76,304.72,82.76
		 M290.06,94.28c2.69,0,3.74-2.23,3.74-2.23v1.94h1.13V83.05h-1.25v7.61c0,0-0.96,2.4-3.38,2.4c-1.82,0-3.1-0.96-3.1-3.22v-6.79
		h-1.25v6.98C285.95,93.01,287.97,94.28,290.06,94.28 M266.59,84.2h2.38v6.84c0,1.8,0.98,3.24,3.12,3.24c1.1,0,2.16-0.65,2.16-0.65
		l-0.48-1.08c0,0-0.77,0.5-1.63,0.5c-1.49,0-1.92-1.03-1.92-2.26v-6.6h3.72v-1.15h-3.72v-3.53h-1.25v3.53h-2.38V84.2z M254.66,91.95
		c0,0,1.44,2.33,4.68,2.33c2.06,0,4.15-1.06,4.15-3.14c0-1.97-1.63-2.69-3.67-3.14c-1.85-0.41-3.29-0.79-3.29-2.14
		c0-1.13,1.1-1.87,2.59-1.87c1.97,0,3.1,1.22,3.1,1.22l0.82-0.91c0,0-1.34-1.54-3.91-1.54c-2.4,0-3.86,1.54-3.86,3.1
		c0,1.82,1.49,2.74,3.89,3.26c1.7,0.38,3.05,0.77,3.05,2.02c0,1.44-1.66,1.92-2.86,1.92c-2.59,0-3.7-1.94-3.7-1.94L254.66,91.95z
		 M246.47,82.76c-2.69,0-3.74,2.28-3.74,2.28v-1.99h-1.13v10.94h1.25v-7.56c0,0,0.96-2.45,3.38-2.45c1.78,0,3.1,0.96,3.1,3.22v6.79
		h1.25v-6.98C250.58,84.03,248.51,82.76,246.47,82.76 M228.21,87.87c0.05-1.2,1.06-3.89,4.1-3.89c2.88,0,3.96,2.64,4.01,3.89H228.21
		z M232.31,82.76c-3.26,0-5.4,2.66-5.4,5.76c0,3.12,2.35,5.76,5.62,5.76c1.8,0,3.53-0.96,4.58-2.23l-0.84-0.86
		c-0.74,0.94-2.06,1.87-3.74,1.87c-2.9,0-4.27-2.38-4.37-4.03h9.43c0.02-0.26,0.02-0.29,0.02-0.5
		C237.62,85.16,235.22,82.76,232.31,82.76 M221.03,79.49c0,0.53,0.43,0.96,0.96,0.96s0.96-0.43,0.96-0.96s-0.43-0.96-0.96-0.96
		S221.03,78.97,221.03,79.49 M221.37,93.99h1.25V83.05h-1.25V93.99z M205.17,92.84v-14.5h3.1c4.42,0,7.25,2.9,7.25,7.25
		s-2.83,7.25-7.25,7.25H205.17z M203.92,77.19v16.8h4.58c4.85,0,8.3-3.55,8.3-8.4s-3.46-8.4-8.3-8.4H203.92z M191.71,82.76
		c-2.26,0-3.19,2.06-3.19,2.06v-1.78h-1.13v10.94h1.25v-7.9c0,0,0.89-2.11,2.78-2.11c1.01,0,1.46,0.26,1.46,0.26l0.53-1.2
		C193.41,83.05,192.74,82.76,191.71,82.76 M173.99,87.87c0.05-1.2,1.06-3.89,4.1-3.89c2.88,0,3.96,2.64,4.01,3.89H173.99z
		 M178.1,82.76c-3.26,0-5.4,2.66-5.4,5.76c0,3.12,2.35,5.76,5.62,5.76c1.8,0,3.53-0.96,4.58-2.23l-0.84-0.86
		c-0.74,0.94-2.06,1.87-3.74,1.87c-2.9,0-4.27-2.38-4.37-4.03h9.43c0.02-0.26,0.02-0.29,0.02-0.5C183.4,85.16,181,82.76,178.1,82.76
		 M160.99,84.85v-9h-1.25v18.14h1.25v-7.56c0,0,0.96-2.45,3.38-2.45c1.78,0,3.1,0.96,3.1,3.22v6.79h1.25v-6.98
		c0-2.98-2.06-4.25-4.1-4.25C162.04,82.76,160.99,84.85,160.99,84.85 M151.12,93.05c-2.62,0-4.34-2.11-4.34-4.54
		c0-2.42,1.73-4.54,4.34-4.54c2.3,0,3.48,1.63,3.48,1.63l0.89-0.79c0,0-1.51-2.06-4.37-2.06c-3.26,0-5.64,2.59-5.64,5.76
		s2.38,5.76,5.64,5.76c2.98,0,4.49-2.23,4.49-2.23l-0.86-0.82C154.75,91.23,153.55,93.05,151.12,93.05 M139.6,79.49
		c0,0.53,0.43,0.96,0.96,0.96s0.96-0.43,0.96-0.96s-0.43-0.96-0.96-0.96S139.6,78.97,139.6,79.49 M139.94,93.99h1.25V83.05h-1.25
		V93.99z M133.08,93.99h1.25V75.85h-1.2L133.08,93.99z M121.12,84.2h2.38v6.84c0,1.8,0.98,3.24,3.12,3.24c1.1,0,2.16-0.65,2.16-0.65
		l-0.48-1.08c0,0-0.77,0.5-1.63,0.5c-1.49,0-1.92-1.03-1.92-2.26v-6.6h3.72v-1.15h-3.72v-3.53h-1.25v3.53h-2.38V84.2z M113.16,82.76
		c-2.69,0-3.74,2.28-3.74,2.28v-1.99h-1.13v10.94h1.25v-7.56c0,0,0.96-2.45,3.38-2.45c1.78,0,3.1,0.96,3.1,3.22v6.79h1.25v-6.98
		C117.26,84.03,115.2,82.76,113.16,82.76 M94.89,87.87c0.05-1.2,1.06-3.89,4.1-3.89c2.88,0,3.96,2.64,4.01,3.89H94.89z M99,82.76
		c-3.26,0-5.4,2.66-5.4,5.76c0,3.12,2.35,5.76,5.62,5.76c1.8,0,3.53-0.96,4.58-2.23l-0.84-0.86c-0.74,0.94-2.06,1.87-3.74,1.87
		c-2.9,0-4.27-2.38-4.37-4.03h9.43c0.02-0.26,0.02-0.29,0.02-0.5C104.3,85.16,101.9,82.76,99,82.76 M84.33,84.2h2.35v9.79h1.25V84.2
		h2.88v-1.15h-2.88v-3.96c0-1.34,0.5-2.3,1.92-2.3c0.74,0,1.39,0.38,1.39,0.38l0.53-1.08c-0.86-0.46-1.44-0.53-2.09-0.53
		c-1.49,0-3,1.1-3,3.19v4.3h-2.35V84.2z M75.14,84.2h2.35v9.79h1.25V84.2h2.88v-1.15h-2.88v-3.96c0-1.34,0.5-2.3,1.92-2.3
		c0.74,0,1.39,0.38,1.39,0.38l0.53-1.08c-0.86-0.46-1.44-0.53-2.09-0.53c-1.49,0-3,1.1-3,3.19v4.3h-2.35V84.2z M68.01,79.49
		c0,0.53,0.43,0.96,0.96,0.96s0.96-0.43,0.96-0.96s-0.43-0.96-0.96-0.96S68.01,78.97,68.01,79.49 M63.67,79.49
		c0,0.53,0.43,0.96,0.96,0.96s0.96-0.43,0.96-0.96s-0.43-0.96-0.96-0.96S63.67,78.97,63.67,79.49 M66.79,93.05
		c-2.74,0-4.27-2.06-4.27-4.54s1.54-4.54,4.27-4.54s4.27,2.06,4.27,4.54S69.52,93.05,66.79,93.05 M66.79,82.76
		c-3.26,0-5.57,2.59-5.57,5.76s2.3,5.76,5.57,5.76s5.57-2.59,5.57-5.76S70.05,82.76,66.79,82.76"/>
	<path d="M209.2,67.52l1.1,0.38l2.04-5.62l-1.15-0.41L209.2,67.52z M206.87,52.76c-2.26,0-3.19,2.06-3.19,2.06v-1.78h-1.13v10.94
		h1.25v-7.9c0,0,0.89-2.11,2.78-2.11c1.01,0,1.46,0.26,1.46,0.26l0.53-1.2C208.58,53.05,207.91,52.76,206.87,52.76 M192.76,64.28
		c2.69,0,3.74-2.23,3.74-2.23v1.94h1.13V53.05h-1.25v7.61c0,0-0.96,2.4-3.38,2.4c-1.82,0-3.1-0.96-3.1-3.22v-6.79h-1.25v6.98
		C188.66,63.01,190.68,64.28,192.76,64.28 M177.09,54.2h2.38v6.84c0,1.8,0.98,3.24,3.12,3.24c1.1,0,2.16-0.65,2.16-0.65l-0.48-1.08
		c0,0-0.77,0.5-1.63,0.5c-1.49,0-1.92-1.03-1.92-2.26v-6.6h3.72v-1.15h-3.72v-3.53h-1.25v3.53h-2.38V54.2z M171.6,63.99h1.25V45.85
		h-1.2L171.6,63.99z M161.42,64.28c2.69,0,3.74-2.23,3.74-2.23v1.94h1.13V53.05h-1.25v7.61c0,0-0.96,2.4-3.38,2.4
		c-1.82,0-3.1-0.96-3.1-3.22v-6.79h-1.25v6.98C157.32,63.01,159.33,64.28,161.42,64.28 M143.83,47.19h-1.25v16.8h1.25v-8.23
		l8.5,8.23h1.8l-8.81-8.57l7.61-8.23h-1.63l-7.46,8.09V47.19z M126.74,67.52l1.1,0.38l2.04-5.62l-1.15-0.41L126.74,67.52z
		 M116.13,54.2h2.38v6.84c0,1.8,0.98,3.24,3.12,3.24c1.1,0,2.16-0.65,2.16-0.65l-0.48-1.08c0,0-0.77,0.5-1.63,0.5
		c-1.49,0-1.92-1.03-1.92-2.26v-6.6h3.72v-1.15h-3.72v-3.53h-1.25v3.53h-2.38V54.2z M104.2,61.95c0,0,1.44,2.33,4.68,2.33
		c2.06,0,4.15-1.06,4.15-3.14c0-1.97-1.63-2.69-3.67-3.14c-1.85-0.41-3.29-0.79-3.29-2.14c0-1.13,1.1-1.87,2.59-1.87
		c1.97,0,3.1,1.22,3.1,1.22l0.82-0.91c0,0-1.34-1.54-3.91-1.54c-2.4,0-3.86,1.54-3.86,3.1c0,1.82,1.49,2.74,3.89,3.26
		c1.7,0.38,3.05,0.77,3.05,2.02c0,1.44-1.66,1.92-2.86,1.92c-2.59,0-3.7-1.94-3.7-1.94L104.2,61.95z M96.02,52.76
		c-2.69,0-3.74,2.28-3.74,2.28v-1.99h-1.13v10.94h1.25v-7.56c0,0,0.96-2.45,3.38-2.45c1.78,0,3.1,0.96,3.1,3.22v6.79h1.25v-6.98
		C100.12,54.03,98.06,52.76,96.02,52.76 M81.36,64.28c2.69,0,3.74-2.23,3.74-2.23v1.94h1.13V53.05h-1.25v7.61c0,0-0.96,2.4-3.38,2.4
		c-1.82,0-3.1-0.96-3.1-3.22v-6.79h-1.25v6.98C77.25,63.01,79.27,64.28,81.36,64.28 M63.76,47.19h-1.25v16.8h1.25v-8.23l8.5,8.23
		h1.8l-8.81-8.57l7.61-8.23h-1.63l-7.46,8.09V47.19z"/>
	<path d="M273.88,22.61c-2.42,0-3.31,2.06-3.31,2.06s-0.7-2.06-3.46-2.06c-2.26,0-3.07,1.92-3.07,1.92V22.9h-1.87v11.09h2.02v-7.73
		c0,0,0.74-1.78,2.38-1.78c1.44,0,2.38,0.89,2.38,2.69v6.82h2.02v-7.73c0,0,0.72-1.78,2.38-1.78c1.44,0,2.38,0.89,2.38,2.69v6.82
		h2.02v-7.13C277.72,24.13,276.18,22.61,273.88,22.61 M252.38,34.28c2.4,0,3.41-1.99,3.41-1.99v1.7h1.87V22.9h-2.02v7.68
		c0,0-0.89,1.82-2.76,1.82c-1.49,0-2.66-0.82-2.66-2.71V22.9h-2.02v7.13C248.2,32.77,250.17,34.28,252.38,34.28 M240.95,19.35
		c0,0.74,0.62,1.37,1.37,1.37c0.74,0,1.37-0.62,1.37-1.37c0-0.74-0.62-1.37-1.37-1.37C241.58,17.98,240.95,18.61,240.95,19.35
		 M241.31,33.99h2.02V22.9h-2.02V33.99z M236.32,22.61c-2.11,0-3.1,1.99-3.1,1.99v-1.7h-1.87v11.09h2.02v-7.63
		c0,0,0.79-1.87,2.54-1.87c0.84,0,1.27,0.24,1.27,0.24l0.74-1.82C237.93,22.9,237.23,22.61,236.32,22.61 M218.68,27.49
		c0.14-1.15,1.13-3,3.53-3c2.23,0,3.36,1.75,3.43,3H218.68z M222.21,22.61c-3.34,0-5.54,2.59-5.54,5.83c0,3.29,2.42,5.83,5.78,5.83
		c2.93,0,4.61-2.18,4.61-2.18l-1.27-1.32c0,0-1.15,1.63-3.34,1.63c-2.09,0-3.7-1.56-3.82-3.24h8.95c0.02-0.26,0.02-0.43,0.02-0.65
		C227.61,24.94,225.31,22.61,222.21,22.61 M206.01,24.73h2.16v6.07c0,2.45,1.75,3.48,3.34,3.48c0.65,0,1.34-0.14,2.3-0.67
		l-0.74-1.66c0,0-0.65,0.46-1.27,0.46c-1.08,0-1.61-0.62-1.61-1.7v-5.98h3.46V22.9h-3.46v-3.38h-2.02v3.38h-2.16V24.73z
		 M193.89,31.95c0,0,1.63,2.33,4.75,2.33c2.14,0,4.39-1.1,4.39-3.24c0-2.26-1.8-3.05-3.91-3.5c-1.82-0.38-2.69-0.84-2.69-1.68
		c0-0.72,0.7-1.42,2.11-1.42c1.68,0,2.78,1.22,2.78,1.22l1.32-1.37c0,0-1.49-1.68-4.1-1.68c-2.47,0-4.08,1.58-4.08,3.19
		c0,2.09,1.68,3.02,4.06,3.5c1.7,0.34,2.52,0.82,2.52,1.78c0,0.89-1.27,1.37-2.4,1.37c-2.18,0-3.36-1.8-3.36-1.8L193.89,31.95z
		 M187.36,19.35c0,0.74,0.62,1.37,1.37,1.37s1.37-0.62,1.37-1.37c0-0.74-0.62-1.37-1.37-1.37S187.36,18.61,187.36,19.35
		 M187.72,33.99h2.02V22.9h-2.02V33.99z M178.67,22.61c-2.4,0-3.41,1.85-3.41,1.85V22.9h-1.87v11.09h2.02v-7.63
		c0,0,0.96-1.87,2.76-1.87c1.49,0,2.66,0.82,2.66,2.71v6.79h2.02v-7.13C182.85,24.13,180.88,22.61,178.67,22.61 M166.15,19.35
		c0,0.74,0.62,1.37,1.37,1.37c0.74,0,1.37-0.62,1.37-1.37c0-0.74-0.62-1.37-1.37-1.37C166.77,17.98,166.15,18.61,166.15,19.35
		 M166.51,33.99h2.02V22.9h-2.02V33.99z M157.8,22.61c-2.42,0-3.31,2.06-3.31,2.06s-0.7-2.06-3.46-2.06c-2.26,0-3.07,1.92-3.07,1.92
		V22.9h-1.87v11.09h2.02v-7.73c0,0,0.74-1.78,2.38-1.78c1.44,0,2.38,0.89,2.38,2.69v6.82h2.02v-7.73c0,0,0.72-1.78,2.38-1.78
		c1.44,0,2.38,0.89,2.38,2.69v6.82h2.02v-7.13C161.64,24.13,160.1,22.61,157.8,22.61 M133,31.95c0,0,1.63,2.33,4.75,2.33
		c2.14,0,4.39-1.1,4.39-3.24c0-2.26-1.8-3.05-3.91-3.5c-1.82-0.38-2.69-0.84-2.69-1.68c0-0.72,0.7-1.42,2.11-1.42
		c1.68,0,2.78,1.22,2.78,1.22l1.32-1.37c0,0-1.49-1.68-4.1-1.68c-2.47,0-4.08,1.58-4.08,3.19c0,2.09,1.68,3.02,4.06,3.5
		c1.7,0.34,2.52,0.82,2.52,1.78c0,0.89-1.27,1.37-2.4,1.37c-2.18,0-3.36-1.8-3.36-1.8L133,31.95z M121.05,27.49
		c0.14-1.15,1.13-3,3.53-3c2.23,0,3.36,1.75,3.43,3H121.05z M124.58,22.61c-3.34,0-5.54,2.59-5.54,5.83c0,3.29,2.42,5.83,5.78,5.83
		c2.93,0,4.61-2.18,4.61-2.18l-1.27-1.32c0,0-1.15,1.63-3.34,1.63c-2.09,0-3.7-1.56-3.82-3.24h8.95c0.02-0.26,0.02-0.43,0.02-0.65
		C129.98,24.94,127.68,22.61,124.58,22.61 M112.84,30.49c0,0-1.06,1.92-3.26,1.92c-2.26,0-3.67-1.78-3.67-3.96
		c0-2.18,1.46-3.96,3.67-3.96s3.26,1.92,3.26,1.92V30.49z M109.27,22.61c-3,0-5.38,2.57-5.38,5.83s2.38,5.83,5.38,5.83
		c2.66,0,3.74-1.9,3.74-1.9v1.61h1.85V15.85h-2.02v8.42C112.84,24.27,111.72,22.61,109.27,22.61 M95.97,22.61
		c-2.4,0-3.41,1.85-3.41,1.85V22.9h-1.87v11.09h2.02v-7.63c0,0,0.96-1.87,2.76-1.87c1.49,0,2.66,0.82,2.66,2.71v6.79h2.02v-7.13
		C100.15,24.13,98.18,22.61,95.97,22.61 M80.9,34.28c2.4,0,3.41-1.99,3.41-1.99v1.7h1.87V22.9h-2.02v7.68c0,0-0.89,1.82-2.76,1.82
		c-1.49,0-2.66-0.82-2.66-2.71V22.9h-2.02v7.13C76.72,32.77,78.69,34.28,80.9,34.28 M64.22,24.44v-5.33h2.74
		c1.9,0,3.05,1.03,3.05,2.66c0,1.63-1.15,2.66-3.05,2.66H64.22z M67.46,32.07h-3.24v-5.76h3.24c2.4,0,3.46,1.3,3.46,2.88
		S69.86,32.07,67.46,32.07 M62.2,33.99h5.26c3.31,0,5.47-1.87,5.47-4.8c0-3.34-2.57-4.08-2.81-4.13c0.24-0.05,1.9-1.01,1.9-3.29
		c0-2.81-1.94-4.58-5.4-4.58H62.2V33.99z"/>
</g>
<polygon class="st0" points="43.23,22.68 43.23,17.01 17.01,17.01 19.65,22.68 "/>
<polygon class="st0" points="24.94,34.02 43.23,34.02 43.23,28.35 22.29,28.35 "/>
</svg>
